<svg width="114" height="85" viewBox="0 0 114 85" fill="none" xmlns="http://www.w3.org/2000/svg">
<g clip-path="url(#clip0_112_33)">
<path d="M57 53C61.4183 53 65 49.4183 65 45C65 40.5817 61.4183 37 57 37C52.5817 37 49 40.5817 49 45C49 49.4183 52.5817 53 57 53Z" fill="white"/>
<path d="M49.5 20L44.925 25H37C34.25 25 32 27.25 32 30V60C32 62.75 34.25 65 37 65H77C79.75 65 82 62.75 82 60V30C82 27.25 79.75 25 77 25H69.075L64.5 20H49.5ZM57 57.5C50.1 57.5 44.5 51.9 44.5 45C44.5 38.1 50.1 32.5 57 32.5C63.9 32.5 69.5 38.1 69.5 45C69.5 51.9 63.9 57.5 57 57.5Z" fill="white"/>
</g>
<g style="mix-blend-mode:lighten">
<path d="M0 20C0 8.9543 8.95431 0 20 0H94C105.046 0 114 8.9543 114 20V65C114 76.0457 105.046 85 94 85H20C8.9543 85 0 76.0457 0 65V20Z" fill="#1C222F"/>
</g>
<defs>
<clipPath id="clip0_112_33">
<rect width="60" height="60" fill="white" transform="translate(27 15)"/>
</clipPath>
</defs>
</svg>
